# xmcd CD database file
#
# Track frame offsets:
#	183
#	21765
#	39235
#	58330
#	76738
#	92223
#	114200
#	129983
#	153300
#	173015
#
# Disc length: 2557 seconds
#
# Revision: 2
# Processed by: cddbd v1.5.2PL0 Copyright (c) Steve Scherf et al.
# Submitted via: CDex 1.70beta2
#
DISCID=6d09fb0a
DTITLE=Indra - Tempation
DYEAR=1992
DGENRE=Pop
TTITLE0=Temptation
TTITLE1=Let's Go Crazy
TTITLE2=Misery
TTITLE3=Tell Me
TTITLE4=Never Wanna Stop
TTITLE5=Take It From Top
TTITLE6=City Nights
TTITLE7=Kissing In The Moonlight
TTITLE8=If You Stop
TTITLE9=Temptation (Beatboxking's Rave Mix)
EXTD=YEAR: 1992
EXTT0=
EXTT1=
EXTT2=
EXTT3=
EXTT4=
EXTT5=
EXTT6=
EXTT7=
EXTT8=
EXTT9=
PLAYORDER=
